<?xml version="1.0" encoding="UTF-8"?>
<svg id="Layer_1" data-name="Layer 1" xmlns="http://www.w3.org/2000/svg" viewBox="0 0 58 58">
  <defs>
    <style>
      .cls-1 {
        fill: none;
        stroke: #292948;
        stroke-linecap: round;
        stroke-linejoin: round;
        stroke-width: 2px;
      }
    </style>
  </defs>
  <g>
    <path class="cls-1" d="M36.03,20.36c-.28-.74-.68-1.41-1.18-1.98-.5-.56-1.09-1.02-1.74-1.34-.65-.32-1.37-.49-2.13-.49h-3.98c-.75,0-1.47,.17-2.13,.49-.65,.32-1.24,.77-1.74,1.34-.5,.56-.9,1.23-1.18,1.98s-.43,1.56-.43,2.42h0c0,.86,.15,1.67,.43,2.42s.68,1.41,1.18,1.98c.5,.56,1.09,1.02,1.74,1.34s1.37,.49,2.13,.49h3.98c.75,0,1.47,.17,2.13,.49,.65,.32,1.24,.77,1.74,1.34,.5,.56,.9,1.23,1.18,1.98s.43,1.56,.43,2.42h0c0,.86-.15,1.67-.43,2.42s-.68,1.41-1.18,1.98c-.5,.56-1.09,1.02-1.74,1.34s-1.37,.49-2.13,.49h-3.98c-.75,0-1.47-.17-2.13-.49s-1.24-.77-1.74-1.34c-.5-.56-.9-1.23-1.18-1.98"/>
    <line class="cls-1" x1="29" y1="14.07" x2="29" y2="43.93"/>
  </g>
  <polyline class="cls-1" points="4.12 51.4 4.12 41.44 14.07 41.44"/>
  <polyline class="cls-1" points="43.93 16.56 53.88 16.56 53.88 6.6"/>
  <path class="cls-1" d="M56.37,29c0,.94-.05,1.88-.14,2.8-.09,.92-.23,1.83-.41,2.72s-.41,1.77-.67,2.62c-.27,.86-.57,1.7-.92,2.51-.35,.82-.73,1.62-1.15,2.39-.42,.78-.88,1.53-1.37,2.26-.49,.73-1.02,1.43-1.58,2.11-.56,.68-1.15,1.32-1.77,1.94-.62,.62-1.27,1.21-1.94,1.77-.68,.56-1.38,1.08-2.11,1.58-.73,.49-1.48,.95-2.26,1.37-.78,.42-1.57,.81-2.39,1.15-.82,.35-1.66,.65-2.51,.92-.86,.27-1.73,.49-2.62,.67s-1.8,.32-2.72,.41c-.92,.09-1.85,.14-2.8,.14s-1.88-.05-2.8-.14c-.92-.09-1.83-.23-2.72-.41-.89-.18-1.77-.41-2.62-.67-.86-.27-1.7-.57-2.51-.92-.82-.35-1.62-.73-2.39-1.15-.78-.42-1.53-.88-2.26-1.37-.73-.49-1.43-1.02-2.11-1.58-.68-.56-1.32-1.15-1.94-1.77-.62-.62-1.21-1.27-1.77-1.94-.56-.68-1.08-1.38-1.58-2.11-.49-.73-.95-1.48-1.37-2.26"/>
  <path class="cls-1" d="M1.63,29c0-.94,.05-1.88,.14-2.8,.09-.92,.23-1.83,.41-2.72,.18-.89,.41-1.77,.67-2.62,.27-.86,.57-1.7,.92-2.51,.35-.82,.73-1.62,1.15-2.39,.42-.78,.88-1.53,1.37-2.26,.49-.73,1.02-1.43,1.58-2.11,.56-.68,1.15-1.32,1.77-1.94,.62-.62,1.27-1.21,1.94-1.77,.68-.56,1.38-1.08,2.11-1.58,.73-.49,1.48-.95,2.26-1.37,.78-.42,1.57-.81,2.39-1.15,.82-.35,1.66-.65,2.51-.92,.86-.27,1.73-.49,2.62-.67,.89-.18,1.8-.32,2.72-.41,.92-.09,1.85-.14,2.8-.14s1.88,.05,2.8,.14c.92,.09,1.83,.23,2.72,.41s1.77,.41,2.62,.67c.86,.27,1.7,.57,2.51,.92,.82,.35,1.62,.73,2.39,1.15,.78,.42,1.53,.88,2.26,1.37,.73,.49,1.43,1.02,2.11,1.58,.68,.56,1.32,1.15,1.94,1.77,.62,.62,1.21,1.27,1.77,1.94,.56,.68,1.08,1.38,1.58,2.11,.49,.73,.95,1.48,1.37,2.26"/>
</svg>