<svg id="icons" xmlns="http://www.w3.org/2000/svg" width="38" height="38" viewBox="0 0 38 38">
  <defs>
    <style>
      .cls-1 {
        fill: #d9725c;
      }
    </style>
  </defs>
  <title>careers-38x38</title>
  <g>
    <path class="cls-1" d="M37.736,36.63,27.511,26.405A15.854,15.854,0,1,0,26.39,27.52L36.618,37.748a.791.791,0,0,0,1.118-1.118ZM1.613,15.785A14.226,14.226,0,1,1,15.839,30.01,14.242,14.242,0,0,1,1.613,15.785Z"/>
    <path class="cls-1" d="M19.127,16.431a5.928,5.928,0,1,0-6.575,0,9.692,9.692,0,0,0-6.18,7.136.79.79,0,1,0,1.548.318,8.085,8.085,0,0,1,15.842.025.791.791,0,0,0,.773.634.769.769,0,0,0,.158-.015.792.792,0,0,0,.619-.931A9.686,9.686,0,0,0,19.127,16.431ZM11.492,11.5a4.347,4.347,0,1,1,4.347,4.347A4.351,4.351,0,0,1,11.492,11.5Z"/>
  </g>
</svg>
