<svg id="Layer_1" data-name="Layer 1" xmlns="http://www.w3.org/2000/svg" width="150" height="50" viewBox="0 0 150 50"><defs><style>.cls-1{fill:#712a7a;}</style></defs><path class="cls-1" d="M102,19.24H94.25L98.17,9.3,102,19.24m8.64,8.27a.59.59,0,0,0-.49-.61c-1.84-.24-1.59-.49-5.52-10.06L99.58,4.58H96.27c-.43,0-.55.31-.43.67l1,2.33L90.26,23.71l1.35,2c0-.06.06-.18.06-.24l1.78-4.35h9.14l1,2.45a5.68,5.68,0,0,1,.49,1.9c0,1-.73,1.41-2.57,1.53a.58.58,0,0,0-.49.62.44.44,0,0,0,.43.49h8.83a.55.55,0,0,0,.36-.56m-23.18,3c.86,1.29,2,1.23,4.36,1.23,1.16,0,1.84-.13,1.84-.43a.4.4,0,0,0-.25-.37,9.45,9.45,0,0,1-3.92-3.5L82.29,17.27c2.82-.49,6-2.57,6-6.37,0-4.54-4.23-6.32-8.58-6.32H71.19a.44.44,0,0,0-.43.49.6.6,0,0,0,.49.61c2.21.31,2.4.68,2.52,2.27.06.74.18,2.39.18,6.13v4.54c0,3.74-.12,5.21-.18,5.95-.12,1.6-.43,2-2.64,2.33a.58.58,0,0,0-.49.61c0,.25.12.49.43.49h9c.31,0,.43-.24.43-.49A.59.59,0,0,0,80,26.9c-2.08-.31-2.45-.67-2.57-1.84a44.18,44.18,0,0,1-.25-6.74V6.3a6.05,6.05,0,0,1,1.6-.19c3.74,0,6.07,1.78,6.07,5,0,3.8-2.88,5.4-5.64,5.4-.43,0-.62.12-.62.37a3,3,0,0,0,.56,1.1L87.5,30.52M6.5,6.36a6.48,6.48,0,0,1,1.59-.19h4.05c2,0,3.19,1.35,3.44,3.87a.64.64,0,0,0,.61.61.51.51,0,0,0,.55-.55V5.62c0-.73-.18-1.1-.92-1.1H.49c-.31,0-.43.24-.43.49a.6.6,0,0,0,.49.61C2.88,6,3.07,6.42,3.19,8c.06.74.18,2.4.18,6.14v4.6c0,3.74-.12,5.08-.18,5.82-.12,1.6-.49,2-2.7,2.33a.58.58,0,0,0-.49.61c0,.25.12.49.43.49H16.56c.43,0,.86-.12.92-.67l.73-5.09a.43.43,0,0,0-.43-.55.62.62,0,0,0-.61.49c-.8,2-1.84,4.17-5.46,4.17s-4.78-.18-5-1.78a48.87,48.87,0,0,1-.18-5.95V16.78c.8-.06,1.66-.12,2.58-.12,3.12,0,4.41.06,4.72,2.39a.58.58,0,0,0,.61.49c.25,0,.49-.12.49-.43,0-.67-.18-1.28-.18-3.12,0-1.66.18-2.64.18-3.56,0-.31-.24-.43-.49-.43a.59.59,0,0,0-.61.49c-.43,2.64-1.66,2.64-4.79,2.64a15.24,15.24,0,0,1-2.51-.19V6.36M66,21.44c0,4.17-3.12,5.09-6.31,5.09-1.84,0-2.4-.24-2.58-1.35s-.24-3.18-.24-11.89V6.42a5.89,5.89,0,0,1,1.59-.25c3.74,0,6,1.17,6,4.54,0,4-3.56,4.23-5.46,4.23-.61,0-.8.37-.8.68s.25.73.86.73h.43c3.62.07,6.56,1.78,6.56,5.09m-2.51-5.82c2.33-.68,4.41-2.21,4.41-5.52,0-4.54-4.11-5.58-8.4-5.58H51.26c-.55,0-.67.24-.67.49a.59.59,0,0,0,.49.61c2.21.31,2.39.68,2.51,2.27.07.74.19,2.39.19,6.13v4.54c0,3.74-.12,5.21-.19,6-.12,1.59-.42,2-2.63,2.33h-.74c-2.08-.31-2.64-1.1-2.76-3.07L46.05,8.26c-.12-1.59.43-2.51,2.45-2.58a.54.54,0,0,0,.5-.55c0-.3-.13-.55-.43-.55H43.05c-.43,0-.62.12-.68.31L35,22.85,27.35,5a.76.76,0,0,0-.61-.43h-5.4c-.25,0-.37.24-.37.49a.5.5,0,0,0,.49.55c2,.06,2.64,1.11,2.52,2.64l-1.6,16.13c-.18,1.59-.55,2.26-2.76,2.57a.58.58,0,0,0-.49.61c0,.25.12.49.43.49h7.85c.31,0,.43-.24.43-.49a.59.59,0,0,0-.49-.61c-1.9-.31-2.7-.86-2.7-2.21v-.36l1.1-14.72,8.1,18.27c.12.31.31.49.49.49s.43-.18.61-.67L42.62,9.49,43.91,23.9c.18,1.9-.37,2.63-2.58,3a.58.58,0,0,0-.49.61c0,.25.12.49.43.49H60.22c4.47,0,9.38-1.28,9.38-6.37,0-3.74-3.25-5.4-6.07-6m65.73,11.53a.56.56,0,0,0,.43-.62l.37-4.78c.06-.37-.18-.49-.43-.49s-.49.18-.67.55a7.19,7.19,0,0,1-7,4.85c-5.22,0-9.08-3.74-9.08-10.31,0-7.91,5.77-10.67,9.32-10.67,4.29,0,5.4,3.19,5.71,5.52a.65.65,0,0,0,.67.55.55.55,0,0,0,.61-.49l-.06-5.76c0-.43-.18-.55-.43-.61a26.71,26.71,0,0,0-6-.74c-8.52,0-13.49,5.15-13.49,12.27,0,7.41,4.3,12,12.21,12a30.12,30.12,0,0,0,7.78-1.22m9.08-20.79a6.42,6.42,0,0,1,1.59-.19h4c2,0,3.19,1.35,3.44,3.87a.64.64,0,0,0,.61.61.51.51,0,0,0,.55-.55V5.62c0-.73-.18-1.1-.92-1.1H132.33c-.31,0-.43.24-.43.49a.59.59,0,0,0,.49.61c2.21.31,2.39.68,2.52,2.27.06.74.18,2.39.18,6.13v4.6c0,3.74-.12,5.09-.18,5.83-.13,1.59-.43,2-2.64,2.33a.58.58,0,0,0-.49.61c0,.25.12.49.43.49h16.12c.43,0,.86-.12.92-.67l.74-5.09a.43.43,0,0,0-.43-.55.62.62,0,0,0-.61.49c-.8,2-1.84,4.17-5.46,4.17s-4.78-.19-5-1.78a48.87,48.87,0,0,1-.18-5.95V16.66c.8-.06,1.65-.12,2.57-.12,3.13,0,4.42.06,4.73,2.39a.57.57,0,0,0,.61.49.44.44,0,0,0,.49-.43c0-.67-.18-1.29-.18-3.13,0-1.65.18-2.63.18-3.55a.44.44,0,0,0-.49-.43.59.59,0,0,0-.61.49c-.5,2.57-1.66,2.57-4.79,2.57a16.46,16.46,0,0,1-2.51-.18V6.36M118.72,45.79h4.53v-.92h-3.43v-1.6h3v-.92h-3V40.76h3.43v-.92h-4.47v5.95Zm-5.83.06a3.25,3.25,0,0,0,2.45-1l-.67-.68a2.28,2.28,0,0,1-1.72.8,2,2,0,0,1-2-2.15h0a2.06,2.06,0,0,1,2-2.14,2.56,2.56,0,0,1,1.72.73l.67-.79a3,3,0,0,0-2.33-.92,3.06,3.06,0,0,0-3.12,3.12h0A3,3,0,0,0,112.89,45.85Zm-11.83-.06h1V41.5l3.31,4.29h.86v-6h-1V44L102,39.78h-1v6ZM93.64,43.4l1-2.4,1,2.4Zm-2.09,2.39h1.11l.61-1.47h2.82l.61,1.47h1.11l-2.64-6.07h-1Zm-6.93-3.07v-2h1.54c.79,0,1.22.37,1.22,1h0c0,.61-.49,1-1.22,1H84.62Zm-1,3.07h1V43.7H86l1.47,2.09h1.23L87,43.52a1.8,1.8,0,0,0,1.41-1.84h0a1.76,1.76,0,0,0-.49-1.29,2.39,2.39,0,0,0-1.71-.61h-2.7v6Zm-6.25.06a2.39,2.39,0,0,0,2.57-2.7V39.72h-1v3.49c0,1.11-.55,1.66-1.53,1.66a1.51,1.51,0,0,1-1.54-1.72V39.72h-1v3.49A2.35,2.35,0,0,0,77.33,45.85Zm-8.16,0c1.29,0,2.15-.68,2.15-1.78h0c0-1-.68-1.47-2-1.78s-1.41-.49-1.41-.92h0c0-.37.37-.73,1-.73a3,3,0,0,1,1.66.61l.55-.8a3.31,3.31,0,0,0-2.21-.73,1.86,1.86,0,0,0-2.08,1.78h0c0,1.1.74,1.47,2,1.77,1.11.25,1.35.49,1.35.92h0c0,.43-.43.74-1,.74a2.8,2.8,0,0,1-1.9-.8l-.61.74A3.62,3.62,0,0,0,69.17,45.85Zm-11.1-.06h1V41.5l3.31,4.29h.86v-6h-1V44L59,39.78H58v6Zm-4.9,0h1v-6h-1Zm-8.84,0h1.05v-5h1.9v-1H42.37v1h1.9v5Zm-9.5,0h4.54v-.92H35.93v-1.6h3v-.92h-3V40.76h3.44v-.92H34.89v5.95ZM27.9,42.91V40.76h1.23c.79,0,1.29.37,1.29,1.1h0A1.16,1.16,0,0,1,29.13,43H27.9Zm-1,2.88h1v-2h1.23a2.12,2.12,0,0,0,2.39-2.09h0a2,2,0,0,0-2.27-2H26.86Z"/></svg>