<svg id="icons" xmlns="http://www.w3.org/2000/svg" width="24" height="24" viewBox="0 0 24 24">
  <defs>
    <style>
      .cls-1 {
        fill: #d9725c;
      }
    </style>
  </defs>
  <title>files_search-document-24x24</title>
  <path class="cls-1" d="M16,22.5a.5.5,0,0,0-.5-.5H1V6H5.5A.5.5,0,0,0,6,5.5V1H16V8.58a.5.5,0,0,0,1,0V.5a.5.5,0,0,0-.5-.5H5.5a.507.507,0,0,0-.354.147l-5,5A.507.507,0,0,0,0,5.5v17a.5.5,0,0,0,.5.5h15A.5.5,0,0,0,16,22.5ZM1.707,5,5,1.707V5Z"/>
  <path class="cls-1" d="M3.5,19H9.185a.5.5,0,1,0,0-1H3.5a.5.5,0,0,0,0,1Z"/>
  <path class="cls-1" d="M3.5,16h5a.5.5,0,0,0,0-1h-5a.5.5,0,0,0,0,1Z"/>
  <path class="cls-1" d="M9.185,12H3.5a.5.5,0,0,0,0,1H9.185a.5.5,0,1,0,0-1Z"/>
  <path class="cls-1" d="M12.413,9.5a.5.5,0,0,0-.5-.5H3.5a.5.5,0,0,0,0,1h8.413A.5.5,0,0,0,12.413,9.5Z"/>
  <path class="cls-1" d="M19.724,19.017a5.509,5.509,0,1,0-.707.707l4.13,4.13a.5.5,0,0,0,.707-.707ZM11,15.5A4.5,4.5,0,1,1,15.5,20,4.505,4.505,0,0,1,11,15.5Z"/>
</svg>
