<svg id="Layer_1" data-name="Layer 1" xmlns="http://www.w3.org/2000/svg" width="150" height="50" viewBox="0 0 150 50"><g id="goat-color"><path d="M33.47,27.5h6.92v3.59a8.8,8.8,0,0,1-6.89,3.09c-5.23,0-9-3.88-9-9.24s3.78-9.25,9-9.25a8.79,8.79,0,0,1,7.24,3.6l2.52-2.24a12.06,12.06,0,0,0-9.76-4.48A12.19,12.19,0,0,0,21,24.94,12.19,12.19,0,0,0,33.47,37.31,12.46,12.46,0,0,0,43.85,32V24.47H33.47ZM64.62,12.69A12.17,12.17,0,0,0,52.19,25.06a12.43,12.43,0,0,0,24.85,0A12.15,12.15,0,0,0,64.62,12.69Zm0,21.62c-5.16,0-9-3.89-9-9.25s3.77-9.24,9-9.24,9,3.82,9,9.24S69.8,34.31,64.62,34.31Zm28-21.07L82.28,37h3.33l3-6.7H100L103,37h3.34L96,13.24Zm-2.52,14,4.24-9.72h0l4.2,9.72Zm19.27-14v3h8.22V36.79H121V16.26h8v-3Z"/></g></svg>