<svg id="Layer_1" data-name="Layer 1" xmlns="http://www.w3.org/2000/svg" width="48" height="48" viewBox="0 0 48 48">
  <defs>
    <style>
      .cls-1, .cls-2 {
        fill: none;
        stroke: #d9725c;
        stroke-miterlimit: 10;
        stroke-width: 2px;
      }

      .cls-2 {
        stroke-linecap: round;
      }
    </style>
  </defs>
  <title>Artboard 1 copy</title>
  <g>
    <polyline class="cls-1" points="0 13 7 13 7 30 0 30"/>
    <polyline class="cls-1" points="48 13 41 13 41 30 48 30"/>
    <line class="cls-1" x1="40" y1="15" x2="32" y2="15"/>
    <path class="cls-1" d="M40,28H36L25,39s-2,1-3,0,0-3,0-3-2,1-3,0,0-3,0-3-2,1-3,0,0-3,0-3-2,1-3,0,0-3,0-3L24,16s4,4,7,4a2.938,2.938,0,0,0,3-3l-7-7H18l-6,5H8"/>
    <line class="cls-1" x1="13" y1="28" x2="7" y2="28"/>
    <line class="cls-2" x1="12" y1="15" x2="10" y2="17"/>
    <line class="cls-2" x1="38" y1="26" x2="36" y2="28"/>
  </g>
</svg>
