<svg id="Layer_1" data-name="Layer 1" xmlns="http://www.w3.org/2000/svg" width="150" height="50" viewBox="0 0 150 50"><defs><style>.cls-1{fill:#df2a63;}</style></defs><polygon class="cls-1" points="18.03 19.28 18.2 39.9 24.4 39.9 24.94 19.28 18.03 19.28"/><path class="cls-1" d="M35.32,10l-.14,9.71a14.47,14.47,0,0,1,4.61-.81,8.37,8.37,0,0,1,5,1.63q4,2.93,4,8.59a10.22,10.22,0,0,1-3.51,8.23,11.1,11.1,0,0,1-7.49,2.63,14.51,14.51,0,0,1-7-1.81A11.65,11.65,0,0,1,29,36.85a14.35,14.35,0,0,0,.38-3.75l-.25-18.52a20.7,20.7,0,0,0-.34-3.6Zm0,15.32,0,8.94a5.92,5.92,0,0,0,3.16.93A4.94,4.94,0,0,0,42.78,33a5.89,5.89,0,0,0,1-3.54,4.86,4.86,0,0,0-1.6-3.94,5.28,5.28,0,0,0-3.46-1.23,7.23,7.23,0,0,0-3.45,1"/><path class="cls-1" d="M62.9,18.31a11.12,11.12,0,0,1,11,11.24v0a10.78,10.78,0,0,1-1.16,4.91A11,11,0,0,1,68,39.4a11.32,11.32,0,0,1-5.55,1.39A10.42,10.42,0,0,1,54,37.06a10.74,10.74,0,0,1-2.58-7.17,11.3,11.3,0,0,1,3.61-8.46,11,11,0,0,1,7.82-3.12m.2,5.78a4.74,4.74,0,0,0-4,2,6.11,6.11,0,0,0-1.25,3.6,5.67,5.67,0,0,0,1.41,3.79,4.38,4.38,0,0,0,3.42,1.65,4.64,4.64,0,0,0,2.94-1.05A5.89,5.89,0,0,0,66,25.2a4.23,4.23,0,0,0-3-1.11"/><path class="cls-1" d="M89.86,20.75v5.18l-5.19-.06-.13,5v1A4.08,4.08,0,0,0,85,34a2.3,2.3,0,0,0,2,1.14,6.08,6.08,0,0,0,2.43-.7L91,38.65a9.28,9.28,0,0,1-5.6,2.09,6.82,6.82,0,0,1-4.85-1.89,5.82,5.82,0,0,1-2-4.44V25.6l-3.32-.1V20.61h3.32v-3.1A19.15,19.15,0,0,0,78.4,14l6.31.07a14.76,14.76,0,0,1-.07,1.56c0,.25,0,.82,0,1.67l-.09,3.38Z"/><path class="cls-1" d="M105.15,20.75v5.18l-4.51-.06-.14,5v1A3.8,3.8,0,0,0,101,34a2.65,2.65,0,0,0,2.22,1.14,7.07,7.07,0,0,0,2.73-.7l1.8,4.18a11.26,11.26,0,0,1-6.3,2.1A8.2,8.2,0,0,1,96,38.85a5.52,5.52,0,0,1-2.19-4.44V25.76l-2.66-.09V20.61h2.66v-3.1A20.06,20.06,0,0,0,93.69,14L100,14c0,.33,0,.86-.06,1.56,0,.25,0,.82,0,1.67l-.1,3.38Z"/><path class="cls-1" d="M109.15,20.16a24.78,24.78,0,0,1,8.42-1.66A11.16,11.16,0,0,1,124,20.27a5.55,5.55,0,0,1,2.38,4.34,9.1,9.1,0,0,1,0,.91v7a15,15,0,0,0,1.46,7L122.16,41l-.82-2.17a8,8,0,0,1-5.46,1.94,7.37,7.37,0,0,1-6.14-2.89A7.84,7.84,0,0,1,108,33a6.63,6.63,0,0,1,2.49-5.36,8.37,8.37,0,0,1,5.57-1.91,11.69,11.69,0,0,1,4.61,1.07c-.29-2.26-1.66-3.41-4.11-3.41a15,15,0,0,0-5.86,1.26ZM117,29.74a3,3,0,0,0-2.36,1,3.12,3.12,0,0,0-.9,2.1,3.22,3.22,0,0,0,1,2.35,3.06,3.06,0,0,0,2.21.88,3.14,3.14,0,0,0,2.49-1.1,2.75,2.75,0,0,0,.72-1.94,3.29,3.29,0,0,0-1-2.41,3.15,3.15,0,0,0-2.28-.91"/><path class="cls-1" d="M25.35,16.62h-.43c-5.29,0-6.89-2.83-6.89-2.83V9s1.79,1.64,6.79,1.64h.53Z"/><path class="cls-1" d="M131.35,17.88a2,2,0,0,1-1.48.6,2.1,2.1,0,1,1,1.48-3.58,2,2,0,0,1,.62,1.49,2.1,2.1,0,0,1-.62,1.49m-2.75-2.76a1.77,1.77,0,0,0-.53,1.27,1.84,1.84,0,0,0,.51,1.33,1.79,1.79,0,0,0,2.53,0h0a1.8,1.8,0,0,0,.53-1.33,1.68,1.68,0,0,0-.53-1.27,1.74,1.74,0,0,0-1.27-.54,1.72,1.72,0,0,0-1.26.54m1.33.17a1.62,1.62,0,0,1,.62.07.55.55,0,0,1,.35.59.48.48,0,0,1-.22.45.76.76,0,0,1-.32.11.68.68,0,0,1,.39.23,1,1,0,0,0,.34.36v.34c-.21,0-.21.07,0,.11v-.26h-.66v0a.55.55,0,0,0-.17-.55.92.92,0,0,0-.44-.1h-.06v.67h-.66v-2h.83Zm.19.29a.9.9,0,0,1-.45-.29h-.57V16h.59c.12.3.24.28.35.25a.34.34,0,0,0,.2-.34.27.27,0,0,0-.12-.29"/></svg>