<svg id="Layer_1" data-name="Layer 1" xmlns="http://www.w3.org/2000/svg" width="48" height="48" viewBox="0 0 48 48">
  <defs>
    <style>
      .cls-1 {
        fill: #d9725c;
      }
    </style>
  </defs>
  <title>Artboard 1</title>
  <g>
    <path class="cls-1" d="M40,22H36V12a12,12,0,0,0-24,0V22H8a2,2,0,0,0-2,2V46a2,2,0,0,0,2,2H40a2,2,0,0,0,2-2V24A2,2,0,0,0,40,22ZM14,12a10,10,0,0,1,20,0V22H32V12a8,8,0,0,0-16,0V22H14ZM30,22H18V12a6,6,0,0,1,12,0ZM8,46V24H40l0,22Z"/>
    <path class="cls-1" d="M28,32a4,4,0,1,0-6.791,2.857L20.02,40.8A1,1,0,0,0,21,42h6a1,1,0,0,0,.98-1.2l-1.189-5.947A3.981,3.981,0,0,0,28,32Zm-4-2a2,2,0,0,1,1.126,3.651,1.948,1.948,0,0,1-.5.239l-.077.024a2.044,2.044,0,0,1-1.1,0l-.074-.023a1.938,1.938,0,0,1-.5-.239A2,2,0,0,1,24,30Zm.957,5.884L25.78,40H22.22l.823-4.116c.032.008.065.011.1.018s.093.017.14.025a4,4,0,0,0,.709.072h.023a3.989,3.989,0,0,0,.707-.072c.048-.008.095-.015.142-.026C24.892,35.894,24.925,35.892,24.957,35.884Z"/>
  </g>
</svg>
