<svg id="Layer_1" data-name="Layer 1" xmlns="http://www.w3.org/2000/svg" width="48" height="48" viewBox="0 0 48 48">
  <defs>
    <style>
      .cls-1 {
        fill: #d9725c;
      }
    </style>
  </defs>
  <title>icon-line-item-branding-48x48</title>
  <g>
    <path class="cls-1" d="M40.988,11.939a1,1,0,0,0-.052-.26c-.011-.032-.019-.062-.033-.093a1,1,0,0,0-.2-.293l-10-10a.989.989,0,0,0-.292-.195.9.9,0,0,0-.1-.035.988.988,0,0,0-.252-.05A.487.487,0,0,0,30,1H8A1,1,0,0,0,7,2V46a1,1,0,0,0,1,1H40a1,1,0,0,0,1-1V12C41,11.979,40.989,11.96,40.988,11.939ZM37.586,11H31V4.414ZM9,45V3H29v9a1,1,0,0,0,1,1h9V45Z"/>
    <path class="cls-1" d="M34,37H20a1,1,0,0,0,0,2H34a1,1,0,0,0,0-2Z"/>
    <path class="cls-1" d="M34,31H20a1,1,0,0,0,0,2H34a1,1,0,0,0,0-2Z"/>
    <path class="cls-1" d="M34,25H20a1,1,0,0,0,0,2H34a1,1,0,0,0,0-2Z"/>
    <path class="cls-1" d="M34,19H20a1,1,0,0,0,0,2H34a1,1,0,0,0,0-2Z"/>
    <path class="cls-1" d="M16,37H14a1,1,0,0,0,0,2h2a1,1,0,0,0,0-2Z"/>
    <path class="cls-1" d="M16,31H14a1,1,0,0,0,0,2h2a1,1,0,0,0,0-2Z"/>
    <path class="cls-1" d="M16,25H14a1,1,0,0,0,0,2h2a1,1,0,0,0,0-2Z"/>
    <path class="cls-1" d="M16,19H14a1,1,0,0,0,0,2h2a1,1,0,0,0,0-2Z"/>
  </g>
</svg>
