<svg id="Layer_1" data-name="Layer 1" xmlns="http://www.w3.org/2000/svg" width="48" height="48" viewBox="0 0 48 48">
  <defs>
    <style>
      .cls-1 {
        fill: none;
        stroke: #d9725c;
        stroke-linecap: round;
        stroke-linejoin: round;
        stroke-width: 2px;
      }

      .cls-2 {
        fill: #d9725d;
      }
    </style>
  </defs>
  <title>Artboard 1</title>
  <g>
    <line class="cls-1" x1="27" y1="16" x2="21" y2="32"/>
    <polyline class="cls-1" points="19 28 11 24 19 20"/>
    <polyline class="cls-1" points="29 28 37 24 29 20"/>
  </g>
  <path class="cls-2" d="M24,47.094a4.625,4.625,0,0,1-2.276-.6L5.338,37.231A4.638,4.638,0,0,1,3,33.2V14.8a4.633,4.633,0,0,1,2.346-4.024L21.721,1.5a4.642,4.642,0,0,1,4.552,0l16.382,9.266A4.636,4.636,0,0,1,45,14.8V33.2a4.638,4.638,0,0,1-2.348,4.025L26.273,46.5A4.625,4.625,0,0,1,24,47.094ZM24,2.919a2.628,2.628,0,0,0-1.287.337L6.328,12.523A2.619,2.619,0,0,0,5,14.8V33.2a2.618,2.618,0,0,0,1.327,2.275l16.382,9.267a2.626,2.626,0,0,0,2.573,0l16.381-9.267A2.616,2.616,0,0,0,43,33.2V14.8a2.616,2.616,0,0,0-1.327-2.275L25.283,3.256A2.618,2.618,0,0,0,24,2.919Z"/>
</svg>
