<svg id="Layer_1" data-name="Layer 1" xmlns="http://www.w3.org/2000/svg" width="38" height="38" viewBox="0 0 38 38">
  <defs>
    <style>
      .cls-1 {
        fill: #d9725c;
      }
    </style>
  </defs>
  <title>ecommerce_star-favorites-38x38</title>
  <g id="icons">
    <path class="cls-1" d="M37.884,15.322a2.289,2.289,0,0,0-1.86-1.569l-10.334-1.5L21.068,2.872a2.3,2.3,0,0,0-4.136,0L12.31,12.249l-10.334,1.5A2.311,2.311,0,0,0,.7,17.691l7.479,7.3L6.411,35.3a2.3,2.3,0,0,0,.5,1.875,2.331,2.331,0,0,0,2.843.56L19,32.865l9.242,4.866A2.284,2.284,0,0,0,29.317,38a2.309,2.309,0,0,0,2.272-2.7L29.824,24.99l7.479-7.3A2.3,2.3,0,0,0,37.884,15.322ZM36.2,16.557l-7.776,7.59a.8.8,0,0,0-.228.7l1.835,10.719a.7.7,0,0,1-.153.586.731.731,0,0,1-.893.179l-9.611-5.06a.786.786,0,0,0-.738,0l-9.609,5.06a.728.728,0,0,1-.895-.179.7.7,0,0,1-.153-.586L9.809,24.847a.792.792,0,0,0-.228-.7l-7.776-7.59a.711.711,0,0,1-.183-.744.7.7,0,0,1,.584-.494l10.746-1.563a.784.784,0,0,0,.6-.432l4.805-9.752a.743.743,0,0,1,1.3,0l4.805,9.752a.784.784,0,0,0,.595.432L35.794,15.32a.726.726,0,0,1,.4,1.237Z"/>
  </g>
</svg>
