<svg xmlns="http://www.w3.org/2000/svg" width="500" height="114.441" viewBox="0 0 500 114.441">
  <defs>
    <style>
      .cls-1 {
        fill: #fff;
      }
    </style>
  </defs>
  <title>logo-goat-white</title>
  <g id="Layer_2" data-name="Layer 2">
    <g id="Layer_1-2" data-name="Layer 1">
      <path class="cls-1" d="M57.493,69.074h31.88V85.7A40.54,40.54,0,0,1,57.629,100c-24.114,0-41.416-17.984-41.416-42.779,0-25.068,17.438-42.78,41.416-42.78,14.714,0,27.112,7.357,33.379,16.622l11.581-10.355C92.234,7.9,77.248,0,57.629,0,25.341,0,0,24.251,0,57.221s25.341,57.22,57.493,57.22a57.266,57.266,0,0,0,47.82-24.795V54.768H57.493ZM201.907,0c-32.152,0-57.493,24.251-57.493,57.221s25.341,57.22,57.493,57.22c32.289,0,57.494-24.25,57.494-57.22S234.2,0,201.907,0Zm0,100c-23.842,0-41.417-17.984-41.417-42.779,0-25.068,17.439-42.78,41.417-42.78,23.842,0,41.553,17.712,41.553,42.78C243.46,82.016,225.886,100,201.907,100ZM331.335,2.316,283.787,111.989h16.077l13.351-30.381h52.044l13.351,30.381h16.077L347.275,2.316ZM319.482,67.3l19.755-45.367h.136L358.992,67.3ZM408.856,2.316V16.757h37.6v95.368h16.076V16.757H500V2.316Z"/>
    </g>
  </g>
</svg>
