<?xml version="1.0" encoding="UTF-8"?>
<svg id="Layer_1" data-name="Layer 1" xmlns="http://www.w3.org/2000/svg" viewBox="0 0 58 58">
  <defs>
    <style>
      .cls-1 {
        fill: #2d2d48;
      }
    </style>
  </defs>
  <g>
    <path class="cls-1" d="M57.14,18.18l-17.24-9.3c-.48-.26-1.09,.07-1.09,.59v4.42c0,.38-.33,.68-.73,.68h-1.11c-.4,0-.73,.3-.73,.68v7.05c0,.38,.33,.68,.73,.68h1.11c.4,0,.73,.3,.73,.68v4.42c0,.52,.61,.85,1.09,.59l17.24-9.3c.48-.26,.48-.91,0-1.18Z"/>
    <rect class="cls-1" x="27.75" y="14.57" width="7.07" height="8.4" rx=".67" ry=".67"/>
    <rect class="cls-1" x="21.11" y="14.57" width="5.35" height="8.4" rx=".67" ry=".67"/>
    <rect class="cls-1" x="14.78" y="14.57" width="4.55" height="8.4" rx=".67" ry=".67"/>
    <rect class="cls-1" x="8.29" y="14.57" width="3.85" height="8.4" rx=".67" ry=".67"/>
    <path class="cls-1" d="M5.35,22.97h-1.58c-.37,0-.67-.3-.67-.67v-7.07c0-.37,.3-.67,.67-.67h1.58c.37,0,.67,.3,.67,.67v7.07c0,.37-.3,.67-.67,.67Z"/>
  </g>
  <g>
    <path class="cls-1" d="M.86,39.82l17.24,9.3c.48,.26,1.09-.07,1.09-.59v-4.42c0-.38,.33-.68,.73-.68h1.11c.4,0,.73-.3,.73-.68v-7.05c0-.38-.33-.68-.73-.68h-1.11c-.4,0-.73-.3-.73-.68v-4.42c0-.52-.61-.85-1.09-.59L.86,38.64c-.48,.26-.48,.91,0,1.18Z"/>
    <rect class="cls-1" x="23.17" y="35.03" width="7.07" height="8.4" rx=".67" ry=".67" transform="translate(53.42 78.46) rotate(180)"/>
    <rect class="cls-1" x="31.54" y="35.03" width="5.35" height="8.4" rx=".67" ry=".67" transform="translate(68.44 78.46) rotate(180)"/>
    <rect class="cls-1" x="38.68" y="35.03" width="4.55" height="8.4" rx=".67" ry=".67" transform="translate(81.9 78.46) rotate(180)"/>
    <rect class="cls-1" x="45.86" y="35.03" width="3.85" height="8.4" rx=".67" ry=".67" transform="translate(95.58 78.46) rotate(180)"/>
    <path class="cls-1" d="M52.65,35.03h1.58c.37,0,.67,.3,.67,.67v7.07c0,.37-.3,.67-.67,.67h-1.58c-.37,0-.67-.3-.67-.67v-7.07c0-.37,.3-.67,.67-.67Z"/>
  </g>
</svg>