<svg id="Layer_1" data-name="Layer 1" xmlns="http://www.w3.org/2000/svg" width="150" height="50" viewBox="0 0 150 50"><defs><style>.cls-1{fill:#f5a623;}</style></defs><path class="cls-1" d="M19.24,22.88c3.64-3,11.08-13.69-.56-11.79-5.08.77-12.51,5.69-14,11.38a48.2,48.2,0,0,0-2.56-4.41c-1.44-1.95-3-.41-1.49,1.54A32.83,32.83,0,0,1,8.12,39.14,29.06,29.06,0,0,0,6.53,27.39a7.22,7.22,0,0,0,2.1.31,21.06,21.06,0,0,0,10,8.77c3.74,1.49,8.72.61,6.66-5.38A18.68,18.68,0,0,0,19.24,22.88Zm.52-10.41c6.46-.72-.47,7.33-2.72,8.82-2.1-1.38-4.77-2.61-7.33-2.25C11.55,16.63,16.06,12.93,19.76,12.47ZM9.65,20.78c1.75-.15,3.64.82,5.13,1.84a13,13,0,0,1-4.56,1.29C7.86,23.91,7.35,21,9.65,20.78Zm8.93,12.51c-3-.87-5.9-3.33-7.95-5.79a16.32,16.32,0,0,0,4.92-1.95,11.26,11.26,0,0,0,1.64-1,14.69,14.69,0,0,1,4.41,6.36C22.32,33.6,20.37,33.8,18.58,33.29Z"/><path d="M44,16.11H35.19a.57.57,0,0,0-.56.57h-.06V30.52a.58.58,0,0,0,.57.57.66.66,0,0,0,.56-.57V24.27h7.49a.47.47,0,0,0,.46-.52.44.44,0,0,0-.46-.46H35.65v-6.1H44a.47.47,0,0,0,.46-.51C44.47,16.52,44.32,16.32,44,16.11Zm4.05-.72H48a.42.42,0,0,0-.41.47V30.47a.46.46,0,1,0,.92,0V16C48.52,15.6,48.37,15.39,48.06,15.39Zm12.77,5.24a.47.47,0,1,0-.93,0v6.1a3.53,3.53,0,0,1-3.53,3.64c-2,0-3.23-1.44-3.23-3.69V20.63a.48.48,0,0,0-.47-.52.56.56,0,0,0-.46.52v6.2c0,2.56,1.54,4.46,4,4.46A4,4,0,0,0,60,29v1.59a.46.46,0,0,0,.46.47.47.47,0,0,0,.46-.47h-.05Zm8.46.51a.5.5,0,0,0,.46-.46.55.55,0,0,0-.46-.47H66.06v-3a.55.55,0,0,0-.46-.51h-.06a.47.47,0,0,0-.41.51v3H64a.42.42,0,0,0-.46.42.5.5,0,0,0,.46.51h1.12v7.07a2.7,2.7,0,0,0,2.77,3,4.57,4.57,0,0,0,1.49-.26.59.59,0,0,0,.31-.46.4.4,0,0,0-.41-.41,4.49,4.49,0,0,1-1.18.15,1.83,1.83,0,0,1-2-2.1v-7Zm7.95,0a.47.47,0,0,0,.46-.46.5.5,0,0,0-.46-.47H74v-3a.51.51,0,0,0-.47-.51h-.05a.47.47,0,0,0-.41.51v3H72a.46.46,0,0,0-.46.42.56.56,0,0,0,.46.51h1.13v7.07a2.71,2.71,0,0,0,2.82,3,4.56,4.56,0,0,0,1.44-.26.49.49,0,0,0,.31-.46.38.38,0,0,0-.41-.41,4.49,4.49,0,0,1-1.18.15,1.83,1.83,0,0,1-2-2.1v-7Zm7-1.23c-2.72,0-4.77,2.46-4.77,5.69v0c0,3.44,2.26,5.69,5,5.69a4.86,4.86,0,0,0,3.89-1.74.44.44,0,0,0,.21-.36.55.55,0,0,0-.46-.51l-.31.1a4.41,4.41,0,0,1-3.28,1.54c-2,0-3.8-1.59-4-4.26h8A.55.55,0,0,0,89,25.6C89,22.37,87.13,19.91,84.26,19.91Zm-3.79,5.18c.15-2.36,1.74-4.21,3.74-4.21,2.31,0,3.54,2,3.64,4.21Zm16.35-5a4.8,4.8,0,0,0-4,3.28V20.68a.54.54,0,0,0-.46-.47c-.31,0-.46.16-.51.47V30.73a.5.5,0,0,0,.46.51.55.55,0,0,0,.51-.51v-4c0-3.54,1.9-5.23,4-5.49h.05a.52.52,0,0,0,.47-.56A.55.55,0,0,0,96.82,20.06Zm17.28-.56a1.51,1.51,0,0,0-1.43,1.23l-1.75,5.84-1.69-5.84a1.64,1.64,0,0,0-1.59-1.28h-.15a1.54,1.54,0,0,0-1.59,1.28l-1.69,5.74-1.64-5.79a1.64,1.64,0,0,0-1.49-1.23h0a1.39,1.39,0,0,0-1.34,1.48l.11.77,2.61,8.05a1.86,1.86,0,0,0,1.69,1.44h.11a1.79,1.79,0,0,0,1.64-1.39l1.69-5.74,1.69,5.74a1.74,1.74,0,0,0,1.64,1.39H111a1.75,1.75,0,0,0,1.69-1.44l2.61-8.15.16-.62v-.05A1.39,1.39,0,0,0,114.1,19.5Zm7.54,0a9.8,9.8,0,0,0-3.43.56,1.27,1.27,0,0,0-.72,1.23,1.21,1.21,0,0,0,1.28,1.28.7.7,0,0,0,.41-.1,7.36,7.36,0,0,1,2.1-.31c1.54,0,2.31.72,2.31,2.11v.15A7.49,7.49,0,0,0,121,24c-2.51,0-4.25,1.18-4.25,3.69a3.43,3.43,0,0,0,3.64,3.49,4.12,4.12,0,0,0,3.23-1.44A1.43,1.43,0,0,0,125,31.14a1.54,1.54,0,0,0,1.48-1.59V24.42a5.33,5.33,0,0,0-1.18-3.59A5.13,5.13,0,0,0,121.64,19.5Zm2,7.43c0,1.23-1,2-2.41,1.95-1,0-1.64-.51-1.64-1.38v-.06c0-1,.82-1.58,2.1-1.58a5.29,5.29,0,0,1,2,.46Zm13.28-7.48a1.41,1.41,0,0,0-1.38,1.12l-2.36,6.62-2.26-6.56a1.52,1.52,0,0,0-1.48-1.18A1.55,1.55,0,0,0,128,20.93a2.14,2.14,0,0,0,.2.77l3.28,8.05a1.87,1.87,0,0,0,1.7,1.44h.2a2.1,2.1,0,0,0,1.75-1.39l3.17-8,.16-.77v-.05A1.45,1.45,0,0,0,136.92,19.45Zm8-.06c-3.13,0-5.28,2.67-5.28,5.9v.51a5.46,5.46,0,0,0,5.59,5.39,5.59,5.59,0,0,0,3.69-1.39,1.09,1.09,0,0,0,.41-.92v-.05a1.21,1.21,0,0,0-1.18-1.28,1,1,0,0,0-.72.25,3.14,3.14,0,0,1-2.15.77,2.48,2.48,0,0,1-2.57-2.25h6A1.49,1.49,0,0,0,150,24.73v-.26A5.07,5.07,0,0,0,144.87,19.39Zm-2.31,5c.26-1.49,1.08-2.41,2.31-2.41s2,1,2.2,2.41Z"/></svg>