<svg id="Layer_1" data-name="Layer 1" xmlns="http://www.w3.org/2000/svg" width="150" height="50" viewBox="0 0 150 50"><defs><style>.cls-1{fill:#282828;fill-rule:evenodd;}</style></defs><g id="rally-color"><path class="cls-1" d="M106.55,0c1.22.44,1.56,1,1.64,2.44a16.38,16.38,0,0,1-1,6.05,47.19,47.19,0,0,1-3.64,7.87c-1,1.91-2.09,3.82-3.19,5.7a8.32,8.32,0,0,0-1.19,4.26c0,.47,0,.94,0,1.41a.64.64,0,0,0,.34.62.61.61,0,0,0,.69-.14,12.44,12.44,0,0,0,2.54-2.73,37.34,37.34,0,0,0,3.14-6c.51-1.15,1-2.31,1.5-3.46a7,7,0,0,1,1.07-1.78,1.09,1.09,0,0,1,1.24-.45,1,1,0,0,1,.64,1.52c-.38,1-.8,2-1.19,2.95A23.22,23.22,0,0,0,107.85,22a6.07,6.07,0,0,0,0,2.58,1.39,1.39,0,0,0,2.38.85,16.59,16.59,0,0,0,3.87-4.82,53.71,53.71,0,0,0,3.61-8.44c.23-.67.46-1.34.72-2a1.63,1.63,0,0,1,1.05-1.09,1.72,1.72,0,0,1,1.67.46,1.32,1.32,0,0,1,.27,1.47c-.47,1.36-1,2.7-1.48,4-1.55,4.4-3.31,8.72-5.17,13-.79,1.82-1.29,3.74-2,5.59A21.62,21.62,0,0,1,102.61,45a39.51,39.51,0,0,1-12.53,4.32,44.2,44.2,0,0,1-6.18.65,2,2,0,0,0-.34.06H80.64a.71.71,0,0,0-.38-.06c-.83,0-1.65-.09-2.47-.16A43.54,43.54,0,0,1,67.21,47.5a80.42,80.42,0,0,1-11.53-5.36A29.75,29.75,0,0,0,46.86,39a1.92,1.92,0,0,0-2.51,1.26c-.56,1.12-1.11,2.25-1.68,3.38a6.79,6.79,0,0,1-.43.74,1.1,1.1,0,0,1-1.11.53A1.92,1.92,0,0,1,39.64,44a.85.85,0,0,1,0-.57,6.45,6.45,0,0,1,.45-1.3c1.21-2.66,2.39-5.33,3.65-8,3.4-7.11,6.77-14.24,9.72-21.55.4-1,.25-1.23-.83-1.1A32.75,32.75,0,0,0,45,13.46a22.71,22.71,0,0,0-12.89,12,8,8,0,0,0-.66,4,2,2,0,0,0,1.68,1.86A4.52,4.52,0,0,0,35.49,31a5.35,5.35,0,0,0,2.73-2.21c.26-.41.6-.78,1.15-.66a1.37,1.37,0,0,1,1.07,1.09,1.58,1.58,0,0,1,0,.78A4,4,0,0,1,39,32.22,8.12,8.12,0,0,1,34.7,34c-2.67.23-5-.75-5.91-3.74-.12-.38-.18-.79-.27-1.18V27.79a17.94,17.94,0,0,1,.82-3.06,19.05,19.05,0,0,1,4.44-7,30.83,30.83,0,0,1,13.91-8.1,22.88,22.88,0,0,1,5-.66l1.41-.09a1.57,1.57,0,0,0,1.25-1A1.86,1.86,0,0,1,57.6,7a1.3,1.3,0,0,1,1,1.16,1.62,1.62,0,0,0,1.22,1.47c3.88,1.43,5.85,4.39,6.46,8.31a11.55,11.55,0,0,1-2.58,9.3,35.71,35.71,0,0,1-10.19,8.85c-.37.21-.77.39-1.15.58s-.47.27-.46.58a.65.65,0,0,0,.47.58c.89.37,1.8.7,2.68,1.11,2.07,1,4,2.17,6,3.21a45.15,45.15,0,0,0,13.47,4.51,46.63,46.63,0,0,0,11.8.44,40.87,40.87,0,0,0,9.81-1.91,25.65,25.65,0,0,0,8.42-4.65,21.41,21.41,0,0,0,6.26-9.42c.4-1.1.79-2.19,1.17-3.29a.63.63,0,0,0,.09-.42l-.87.42a6.56,6.56,0,0,1-2.24.69,3.55,3.55,0,0,1-2.6-.81c-.18-.14-.35-.31-.53-.47-.43-.38-.68-.39-1.06.05-.6.68-1.18,1.37-1.76,2.07a6.6,6.6,0,0,1-3.62,2.23,1.87,1.87,0,0,1-2.28-1,6.71,6.71,0,0,1-.69-2.48,1.62,1.62,0,0,0-.09-.38c-.15-.35-.36-.38-.62-.11-2,2-3.93,4-5.91,6a6.45,6.45,0,0,1-3.06,1.77,1.88,1.88,0,0,1-2.09-.72,5.19,5.19,0,0,1-.93-2.22c0-.23,0-.54-.28-.61s-.46.21-.63.4a2.39,2.39,0,0,0-.27.43,18.79,18.79,0,0,1-2.82,3.91,6.63,6.63,0,0,1-3.61,2.1A1.94,1.94,0,0,1,74.23,38c-.15-.18-.29-.37-.45-.55-.31-.33-.55-.36-.88-.05s-.72.73-1.07,1.1a16.43,16.43,0,0,1-2.06,1.94,3.9,3.9,0,0,1-3.19.78,3.55,3.55,0,0,1-2.87-3A10.56,10.56,0,0,1,64.1,33a15.12,15.12,0,0,1,5.51-8.16,8.42,8.42,0,0,1,3.7-1.64,4.92,4.92,0,0,1,1.91.13,1,1,0,0,0,1.37-.52c.13-.19.26-.39.41-.57a1.08,1.08,0,0,1,1.4-.35,1.16,1.16,0,0,1,.75,1.32,5.14,5.14,0,0,1-.28,1l-2.37,7a8.57,8.57,0,0,0-.5,3.21,2.94,2.94,0,0,0,0,.51c.1.52.49.7.92.39a7,7,0,0,0,1.85-1.75,37.77,37.77,0,0,0,2.62-4.24,21.43,21.43,0,0,0,1.88-6.83A37.26,37.26,0,0,1,88.11,7.83a10.39,10.39,0,0,1,2.44-2.92,5.13,5.13,0,0,1,2.65-1.1c1.23-.16,2,.57,2.16,1.91a15.39,15.39,0,0,1-1,6.75,53.54,53.54,0,0,1-4.09,8.62c-1,1.81-2,3.63-3,5.42a7.4,7.4,0,0,0-.7,4.93c.09.58.48.78,1,.58a4.39,4.39,0,0,0,1.56-1,35.58,35.58,0,0,0,4.77-5.48,12.56,12.56,0,0,0,2.14-6.45,28.77,28.77,0,0,1,1.31-6.62,37.62,37.62,0,0,1,2.79-7.24,19.2,19.2,0,0,1,2.17-3.18,5.52,5.52,0,0,1,3.42-2,.37.37,0,0,0,.14-.07Zm-43,19a7.89,7.89,0,0,0-1.12-4.24,5.1,5.1,0,0,0-4-2.59A1.29,1.29,0,0,0,57,12.9c-.18.34-.33.69-.48,1C53.85,19.81,51,25.61,48.32,31.45c-.52,1.12-1.07,2.22-1.59,3.33-.24.51-.09.74.46.78a2.27,2.27,0,0,0,.93-.15,21.11,21.11,0,0,0,3.79-1.7,33.3,33.3,0,0,0,9.58-8.54A9.59,9.59,0,0,0,63.51,19Zm11.42,7.88a1.1,1.1,0,0,0-1.18-1.14,2.13,2.13,0,0,0-1,.34,13.43,13.43,0,0,0-5.65,6.11,9.9,9.9,0,0,0-.92,5,1.47,1.47,0,0,0,1.16,1.37,1.6,1.6,0,0,0,1.38-.42,16.77,16.77,0,0,0,1.91-2,24.24,24.24,0,0,0,4.21-8.88,2.39,2.39,0,0,0,0-.31Zm11.36-4.22c.08-.06.11-.07.12-.09l1.11-1.85a59.2,59.2,0,0,0,5-10.06,6.57,6.57,0,0,0,.39-2.74.76.76,0,0,0-.55-.7.63.63,0,0,0-.74.29,10.63,10.63,0,0,0-1.3,1.92,41.46,41.46,0,0,0-3.41,9,20.65,20.65,0,0,0-.6,4.21Zm12.86-3.9c.62-1,1.25-2.06,1.86-3.1A50.39,50.39,0,0,0,105.24,7a6.89,6.89,0,0,0,.44-2.66.76.76,0,0,0-.64-.82c-.4-.09-.62,0-1,.57a34.66,34.66,0,0,0-4.61,11.83,14.63,14.63,0,0,0-.33,2.89Z"/></g></svg>