<?xml version="1.0" encoding="UTF-8"?>
<svg id="Layer_1" data-name="Layer 1" xmlns="http://www.w3.org/2000/svg" viewBox="0 0 115 50">
  <defs>
    <style>
      .cls-1 {
        fill: #fff;
      }
    </style>
  </defs>
  <g>
    <path class="cls-1" d="M55.67,1.51c3.63-1.47,7.81-1.51,11.48-.12,2.6,.98,4.92,2.67,6.63,4.86,1.49,1.9,2.49,4.17,2.87,6.56,2.54,.24,5,1.32,6.86,3.06,1.76,1.63,2.99,3.84,3.37,6.21,.47,2.93-.24,6.04-2.01,8.43-1.38,1.89-3.42,3.28-5.67,3.92-.78,.21-1.59,.4-2.4,.37h-9.91c-.87,0-1.75,.03-2.6-.15-.93-.18-1.78-.72-2.4-1.43-.46-.53-.73-1.21-.88-1.89-.11-.71-.1-1.43-.11-2.14v-7.86h-4.48c2.74-2.74,5.47-5.48,8.21-8.23v4.49h3.73v3.74h-3.73v6.88c0,.72-.02,1.45,.18,2.15,.12,.42,.35,.83,.72,1.08,.39,.28,.89,.36,1.36,.36h6.76c.97,0,1.95,.04,2.91-.12,2.36-.37,4.52-1.85,5.73-3.9,1.4-2.3,1.55-5.29,.4-7.72-1.05-2.29-3.21-4.03-5.67-4.57-.81-.16-1.66-.27-2.48-.12-.22,.03-.44-.03-.65-.05-.07-2.47-1.01-4.87-2.47-6.85-1.39-1.88-3.29-3.4-5.46-4.3-1.71-.71-3.59-1.02-5.44-.91-2.06,.14-4.03,.94-5.7,2.13-2.01,1.44-3.64,3.39-4.77,5.58-.7,1.36-1.22,2.82-1.47,4.34-.39,0-.78,.03-1.18,.04-1.03-.09-2.07-.07-3.09,.13-1.26,.25-2.44,.88-3.33,1.82-.26,.29-.55,.54-.8,.84-1.25,1.43-1.97,3.3-2.01,5.19-.05,1.85,.54,3.71,1.66,5.18,1.2,1.61,3.01,2.75,4.98,3.12,.41,.06,.82,.18,1.24,.17h9.63v2.99h-10.68c-2.5-.25-4.91-1.35-6.74-3.07-1.23-1.15-2.21-2.58-2.8-4.16-.7-1.86-.87-3.92-.47-5.87,.45-2.26,1.67-4.35,3.38-5.9,2.19-2.01,5.18-3.11,8.15-3.04,.38-2.36,1.38-4.62,2.86-6.5,1.63-2.1,3.84-3.74,6.31-4.74h-.02Z"/>
    <path class="cls-1" d="M26.18,41.78h7.48v1.43h-2.78v6.31h-1.91v-6.31h-2.78v-1.42h-.01Z"/>
    <path class="cls-1" d="M57.58,45.08c.72-.81,1.44-1.64,2.17-2.44,.05,0,.15,0,.2-.02v1.65h1.89v1.13h-1.89v2.22c0,.33,.22,.67,.55,.74,.46,.09,.92-.07,1.34-.27v1.19c-.81,.33-1.76,.48-2.58,.11-.6-.26-.93-.91-.94-1.55v-2.45h-.74v-.31Z"/>
    <path class="cls-1" d="M33.3,44.95c.74-.77,1.94-.95,2.93-.63,.73,.25,1.33,.86,1.57,1.59,.14,.4,.17,.83,.17,1.24h-3.74c.03,.58,.37,1.15,.94,1.35,.93,.35,1.95-.05,2.69-.62v1.05c-.81,.61-1.87,.76-2.86,.66-.72-.08-1.43-.4-1.89-.96-.41-.48-.59-1.12-.57-1.74,0-.71,.25-1.44,.76-1.94m1.48,.36c-.34,.21-.46,.62-.51,.99h2.24c-.05-.39-.19-.82-.57-1.02-.36-.17-.81-.17-1.16,.03Z"/>
    <path class="cls-1" d="M41.8,44.24c.61-.16,1.31-.06,1.8,.35,.44,.35,.64,.92,.65,1.46v3.45h-1.63v-3.07c0-.32-.02-.66-.23-.92-.25-.3-.73-.3-1.04-.1-.28,.18-.52,.45-.68,.74-.02,1.12,0,2.24,0,3.36h-1.63v-5.23h1.63v.73c.31-.35,.69-.65,1.14-.77h0Z"/>
    <path class="cls-1" d="M45.56,44.8c.94-.59,2.1-.76,3.18-.54,.34,.08,.69,.22,.93,.49,.23,.25,.34,.59,.34,.93v2.41c0,.14,0,.33,.15,.4,.28,.07,.51-.14,.74-.27v.92c-.58,.33-1.27,.58-1.94,.42-.26-.06-.44-.28-.52-.52-.53,.36-1.16,.6-1.81,.57-.59-.02-1.17-.43-1.33-1.01-.08-.43,0-.91,.29-1.25,.24-.29,.6-.43,.93-.58,.6-.25,1.23-.44,1.86-.63,.02-.34-.14-.73-.5-.81-.86-.21-1.74,.22-2.33,.83v-1.36m1.62,2.77c-.31,.26-.3,.84,.09,1.01,.4,.15,.82-.09,1.12-.35v-1.25c-.42,.16-.86,.3-1.21,.59Z"/>
    <path class="cls-1" d="M53.18,45.01c.41-.48,.99-.84,1.63-.84,.68-.04,1.4,.3,1.72,.92,.21,.39,.25,.84,.24,1.27v3.15h-1.63v-3.07c0-.32-.02-.67-.23-.92-.25-.29-.73-.3-1.04-.1-.28,.18-.52,.45-.68,.74-.02,1.12,0,2.24,0,3.36h-1.63v-5.23h1.63v.73h0Z"/>
  </g>
  <g>
    <path class="cls-1" d="M67.56,42.39c.82-.52,1.81-.72,2.78-.71,.95,0,1.92,.19,2.76,.67v1.74c-.84-.47-1.78-.82-2.76-.78-.78,0-1.58,.28-2.11,.87-.79,.83-.73,2.29,.11,3.06,.58,.58,1.43,.81,2.23,.76,.94,0,1.79-.45,2.62-.85v1.7c-1.27,.7-2.77,.93-4.19,.67-1.01-.18-1.96-.73-2.57-1.56-.7-.9-.89-2.13-.62-3.23,.24-.98,.92-1.81,1.77-2.34h-.02Z"/>
    <path class="cls-1" d="M74.54,41.78h1.63v7.73h-1.63v-7.74h0Z"/>
    <path class="cls-1" d="M94.45,41.78c.54,0,1.09,0,1.63,0v7.73h-1.63v-.4c-.9,.76-2.38,.66-3.15-.23-.52-.55-.75-1.32-.72-2.06-.01-.88,.4-1.77,1.14-2.26,.81-.53,1.89-.48,2.73-.06v-2.71m-1.45,3.6c-.42,.18-.65,.63-.72,1.06-.08,.53-.05,1.11,.26,1.57,.2,.3,.55,.5,.91,.5,.38,.02,.73-.18,1.01-.43v-2.5c-.42-.29-.98-.41-1.45-.2h-.01Z"/>
    <path class="cls-1" d="M79.74,44.2c.85-.11,1.77,.04,2.46,.57,.5,.36,.84,.91,.94,1.52,.11,.71,.06,1.48-.34,2.09-.75,1.11-2.26,1.45-3.5,1.11-.89-.24-1.67-.95-1.88-1.86-.15-.64-.12-1.33,.15-1.93,.39-.84,1.27-1.39,2.17-1.5m.23,1c-.55,.13-.81,.71-.87,1.23-.05,.56-.06,1.16,.21,1.68,.33,.66,1.4,.71,1.8,.1,.27-.41,.3-.92,.3-1.4,0-.44-.06-.92-.34-1.28-.26-.32-.72-.41-1.1-.32h0Z"/>
    <path class="cls-1" d="M84.26,44.28h1.63c0,1.12-.01,2.23,0,3.35,0,.35,.17,.77,.55,.85,.6,.17,1.21-.29,1.39-.85,.02-1.12,0-2.24,0-3.35h1.63v5.23h-1.63v-.73c-.32,.35-.7,.66-1.16,.77-.62,.15-1.34,.05-1.82-.38-.42-.36-.61-.92-.61-1.46v-3.43h.02Z"/>
  </g>
</svg>