<svg xmlns="http://www.w3.org/2000/svg" width="768" height="250" viewBox="0 0 768 250">
  <defs>
    <linearGradient id="dark-a" x1="50%" x2="50%" y1="0%" y2="100%">
      <stop offset="0%" stop-color="#043E73"/>
      <stop offset="100%" stop-color="#093257"/>
    </linearGradient>
    <linearGradient id="dark-b" x1="50%" x2="50%" y1="0%" y2="100%">
      <stop offset="0%" stop-color="#043E73"/>
      <stop offset="100%" stop-color="#093257"/>
    </linearGradient>
    <linearGradient id="dark-c" x1="50%" x2="50%" y1="0%" y2="100%">
      <stop offset="0%" stop-color="#043E73"/>
      <stop offset="100%" stop-color="#093257"/>
    </linearGradient>
    <linearGradient id="dark-d" x1="50%" x2="50%" y1="0%" y2="100%">
      <stop offset="0%" stop-color="#043E73"/>
      <stop offset="100%" stop-color="#093257"/>
    </linearGradient>
    <linearGradient id="dark-e" x1="50%" x2="50%" y1="0%" y2="100%">
      <stop offset="0%" stop-color="#043E73"/>
      <stop offset="100%" stop-color="#093257"/>
    </linearGradient>
  </defs>
  <g fill="none">
    <path fill="url(#dark-a)" d="M705.073684 0C710.596532-1.01453063e-15 715.073684 4.4771525 715.073684 10L715.073 51 735.35 51C738.111424 51 740.35 53.2385763 740.35 56L740.35 64.7C740.35 67.4614237 738.111424 69.7 735.35 69.7L715.073 69.7 715.073684 176.07736C715.073684 214.161184 724.059135 225.628814 756.813158 225.628814 762.742952 225.628814 767.55 230.491267 767.55 236.489407 767.55 242.487547 762.742952 247.35 756.813158 247.35 710.960324 247.35 693.6 225.193986 693.6 176.07736L693.6 69.7 666.3 69.7C663.538576 69.7 661.3 67.4614237 661.3 64.7L661.3 56C661.3 53.2385763 663.538576 51 666.3 51L693.6 51 693.6 10C693.6 4.4771525 698.077153 1.01453063e-15 703.6 0L705.073684 0zM612.423684 0C617.946532-1.01453063e-15 622.423684 4.4771525 622.423684 10L622.423 51 642.7 51C645.461424 51 647.7 53.2385763 647.7 56L647.7 64.7C647.7 67.4614237 645.461424 69.7 642.7 69.7L622.423 69.7 622.423684 176.07736C622.423684 214.161184 631.409135 225.628814 664.163158 225.628814 670.092952 225.628814 674.9 230.491267 674.9 236.489407 674.9 242.487547 670.092952 247.35 664.163158 247.35 618.310324 247.35 600.95 225.193986 600.95 176.07736L600.949 69.7 573.65 69.7C570.888576 69.7 568.65 67.4614237 568.65 64.7L568.65 56C568.65 53.2385763 570.888576 51 573.65 51L600.949 51 600.95 10C600.95 4.4771525 605.427153 1.01453063e-15 610.95 0L612.423684 0z"/>
    <path fill="url(#dark-b)" d="M557.6,149.6 C552.356765,115.405951 522.842647,88.4 488.153754,88.4 C451.243009,88.4 421.571784,114.748897 418.2,149.6 L557.6,149.6 Z M488.052145,227.229104 C506.385971,227.229104 522.285904,221.44112 534.482103,210.410259 C538.951893,206.367554 545.853761,206.712529 549.897856,211.180781 C553.941952,215.649034 553.596859,222.548529 549.127069,226.591234 C532.805858,241.352965 511.661651,249.05 488.052145,249.05 C437.26019,249.05 396.1,207.329166 396.1,156.311194 C396.1,105.780425 437.162362,66.3 488.325,66.3 C538.895149,66.3 580.55,109.289987 580.55,160.538993 L580.55,171.44944 L419.540912,171.44944 C426.423963,203.262894 454.527326,227.229104 488.052145,227.229104 Z"/>
    <path fill="url(#dark-c)" d="M364.85,247.35 L363.6,247.35 C358.077153,247.35 353.6,242.872847 353.6,237.35 L353.6,10 C353.6,4.4771525 358.077153,1.01453063e-15 363.6,0 L364.85,0 C370.372847,-1.01453063e-15 374.85,4.4771525 374.85,10 L374.85,237.35 C374.85,242.872847 370.372847,247.35 364.85,247.35 Z"/>
    <path fill="url(#dark-d)" d="M243.525,65.45 C294.459461,65.45 335.75,106.55026 335.75,157.25 C335.75,161.487322 335.461582,165.65759 334.903222,169.742416 L334.9,238.2 C334.9,243.722847 330.422847,248.2 324.9,248.2 L323.65,248.2 C318.127153,248.2 313.65,243.722847 313.65,238.2 L313.651541,216.874204 C296.736351,236.567214 271.59518,249.05 243.525,249.05 C192.590539,249.05 151.3,207.94974 151.3,157.25 C151.3,106.55026 192.590539,65.45 243.525,65.45 Z M243.525,87.55 C204.796032,87.55 173.4,118.946032 173.4,157.675 C173.4,196.403968 204.796032,227.8 243.525,227.8 C282.253968,227.8 313.65,196.403968 313.65,157.675 C313.65,118.946032 282.253968,87.55 243.525,87.55 Z"/>
    <path fill="url(#dark-e)" d="M11.7805663,51 C17.3034138,51 21.7805663,55.4771525 21.7805663,61 L21.7805663,156.128319 C21.7805663,173.927258 29.4841744,190.105857 44.1499212,204.596469 C57.4605873,217.751167 75.6382716,224.789086 95.1538489,224.789086 C113.162216,224.789086 127.668767,218.696031 141.237796,205.551925 C144.448531,212.276817 148.293368,218.641099 152.694145,224.567932 C136.078625,239.245466 117.309732,246.5 95.1538489,246.5 C70.0431476,246.5 46.3216075,237.315647 28.8158532,220.015017 C10.258267,201.679041 0,180.135319 0,156.128319 L0,61 C-2.45271059e-15,55.4771525 4.4771525,51 10,51 L11.7805663,51 Z M171.050957,51 C176.351656,51 180.689092,55.1242225 181.029449,60.3388536 C172.999791,65.7360048 165.689648,72.1187234 159.269137,79.3125123 L159.270391,61 C159.270391,55.4771525 163.747543,51 169.270391,51 L171.050957,51 Z"/>
  </g>
</svg>
