<svg id="Layer_1" data-name="Layer 1" xmlns="http://www.w3.org/2000/svg" width="48" height="40" viewBox="0 0 48 40">
  <defs>
    <style>
      .cls-1 {
        fill: #d9725c;
      }
    </style>
  </defs>
  <title>dashboard-computer-icon-48x48</title>
  <path class="cls-1" d="M45,4H3A3,3,0,0,0,0,7V33a3,3,0,0,0,3,3H20v6H17a1,1,0,0,0,0,2H31a1,1,0,0,0,0-2H28V36H45a3,3,0,0,0,3-3V7A3,3,0,0,0,45,4ZM3,6H45a1,1,0,0,1,1,1V28H2V7A1,1,0,0,1,3,6ZM26,42H22V36h4Zm19-8H3a1,1,0,0,1-1-1V30H46v3A1,1,0,0,1,45,34Z" transform="translate(0 -4)"/>
</svg>
