<svg id="Layer_1" data-name="Layer 1" xmlns="http://www.w3.org/2000/svg" width="42" height="43.917" viewBox="0 0 42 43.917"><defs><style>.cls-1{fill:#d9725c;}</style></defs><title>dedicated-customer-support-icon-48x48</title><path class="cls-1" d="M41,14H38.613A15.161,15.161,0,0,0,25,2.116,14.933,14.933,0,0,0,13.717,6.148,15.1,15.1,0,0,0,9.3,14H7a4,4,0,0,0-4,4v8a4,4,0,0,0,4,4h3a1,1,0,0,0,1-1V16.347A13.012,13.012,0,0,1,24.87,4.112,13.318,13.318,0,0,1,37.039,17.6V37.29A2.513,2.513,0,0,1,34.528,39.8h-5.69a5,5,0,1,0,.081,2h5.609a4.516,4.516,0,0,0,4.511-4.511V30H41a4,4,0,0,0,4-4V18A4,4,0,0,0,41,14ZM7,28a2,2,0,0,1-2-2V18a2,2,0,0,1,2-2H9v.372c-.013.25-.039.5-.039.751H9V28ZM24,44a3,3,0,1,1,3-3A3,3,0,0,1,24,44ZM43,26a2,2,0,0,1-2,2H39.039V17.6a16.036,16.036,0,0,0-.084-1.6H41a2,2,0,0,1,2,2Z" transform="translate(-3 -2.083)"/><path class="cls-1" d="M35,23V17a11,11,0,0,0-22,0v6a11,11,0,0,0,22,0ZM15,23V17a9,9,0,0,1,18,0v6a9,9,0,0,1-18,0Z" transform="translate(-3 -2.083)"/><path class="cls-1" d="M21.293,19.707a1,1,0,0,0,1.414-1.414,3.719,3.719,0,0,0-5.414,0,1,1,0,0,0,1.408,1.42A1.726,1.726,0,0,1,21.293,19.707Z" transform="translate(-3 -2.083)"/><path class="cls-1" d="M26.7,19.713a1.725,1.725,0,0,1,2.592-.006,1,1,0,0,0,1.414-1.414,3.723,3.723,0,0,0-5.414,0,1,1,0,0,0,1.408,1.42Z" transform="translate(-3 -2.083)"/><path class="cls-1" d="M28.707,25.707a1,1,0,0,0-1.414-1.414c-3.175,3.173-6.243.336-6.588,0a1,1,0,0,0-1.412,1.416,7.178,7.178,0,0,0,4.84,2.079A6.373,6.373,0,0,0,28.707,25.707Z" transform="translate(-3 -2.083)"/></svg>