<?xml version="1.0" encoding="UTF-8"?>
<svg width="23px" height="23px" viewBox="0 0 23 23" version="1.1" xmlns="http://www.w3.org/2000/svg" xmlns:xlink="http://www.w3.org/1999/xlink">
    <!-- Generator: Sketch 61.1 (89650) - https://sketch.com -->
    <title>Combined Shape</title>
    <desc>Created with Sketch.</desc>
    <g id="Home-Page-Updates" stroke="none" stroke-width="1" fill="none" fill-rule="evenodd">
        <path d="M11.5,0.5 C17.575,0.5 22.5,5.425 22.5,11.5 C22.5,17.575 17.575,22.5 11.5,22.5 C5.425,22.5 0.5,17.575 0.5,11.5 C0.5,5.425 5.425,0.5 11.5,0.5 Z M7.11289944,5.70970461 C6.72060824,5.40467972 6.15337718,5.43240926 5.79289322,5.79289322 C5.40236893,6.18341751 5.40236893,6.81658249 5.79289322,7.20710678 L5.79289322,7.20710678 L10.085,11.5 L5.79289322,15.7928932 L5.70970461,15.8871006 C5.40467972,16.2793918 5.43240926,16.8466228 5.79289322,17.2071068 C6.18341751,17.5976311 6.81658249,17.5976311 7.20710678,17.2071068 L7.20710678,17.2071068 L11.5,12.915 L15.7928932,17.2071068 L15.8871006,17.2902954 C16.2793918,17.5953203 16.8466228,17.5675907 17.2071068,17.2071068 C17.5976311,16.8165825 17.5976311,16.1834175 17.2071068,15.7928932 L17.2071068,15.7928932 L12.915,11.5 L17.2071068,7.20710678 L17.2902954,7.11289944 C17.5953203,6.72060824 17.5675907,6.15337718 17.2071068,5.79289322 C16.8165825,5.40236893 16.1834175,5.40236893 15.7928932,5.79289322 L15.7928932,5.79289322 L11.5,10.085 L7.20710678,5.79289322 Z" id="Combined-Shape" fill="#FFFFFF"></path>
    </g>
</svg>
