<svg id="icons" xmlns="http://www.w3.org/2000/svg" width="38" height="38" viewBox="0 0 38 38">
  <defs>
    <style>
      .cls-1 {
        fill: #d9725c;
      }
    </style>
  </defs>
  <title>finance_dollar-symbol</title>
  <path class="cls-1" d="M10.19,7.081a7.994,7.994,0,0,0,0,11.17,7.766,7.766,0,0,0,2.466,1.7,7.5,7.5,0,0,0,3.019.628h1.742V33.25H15.675a5.964,5.964,0,0,1-2.391-.5,6.109,6.109,0,0,1-1.963-1.359,6.273,6.273,0,0,1-1.332-2.012.792.792,0,0,0-1.463.6A7.887,7.887,0,0,0,10.189,32.5a7.742,7.742,0,0,0,2.465,1.7,7.581,7.581,0,0,0,3.021.627h1.742v2.375a.792.792,0,1,0,1.583,0V34.833h1.742a7.577,7.577,0,0,0,3.021-.627,7.789,7.789,0,0,0,2.465-1.7,7.9,7.9,0,0,0,1.662-2.517,8.022,8.022,0,0,0,0-6.139,7.887,7.887,0,0,0-1.663-2.516,7.763,7.763,0,0,0-2.465-1.7A7.5,7.5,0,0,0,20.742,19H19V6.333h1.742a5.986,5.986,0,0,1,2.391.5A6.2,6.2,0,0,1,25.1,8.187,6.328,6.328,0,0,1,26.427,10.2a.791.791,0,0,0,1.463-.6,7.862,7.862,0,0,0-1.662-2.516,7.757,7.757,0,0,0-2.465-1.7,7.553,7.553,0,0,0-3.021-.627H19V2.375a.792.792,0,1,0-1.583,0V4.75H15.675a7.55,7.55,0,0,0-3.021.627A7.753,7.753,0,0,0,10.19,7.081Zm10.552,13.5a5.97,5.97,0,0,1,2.389.5,6.129,6.129,0,0,1,1.965,1.36,6.3,6.3,0,0,1,1.331,2.012,6.437,6.437,0,0,1,0,4.929,6.255,6.255,0,0,1-1.332,2.014,6.134,6.134,0,0,1-1.963,1.357,5.916,5.916,0,0,1-2.389.5H19V20.583ZM15.675,6.333h1.742V19H15.675a5.966,5.966,0,0,1-2.391-.5,6.143,6.143,0,0,1-1.963-1.358,6.419,6.419,0,0,1,0-8.959,6.186,6.186,0,0,1,1.963-1.358A5.986,5.986,0,0,1,15.675,6.333Z"/>
</svg>
