<svg id="Layer_1" data-name="Layer 1" xmlns="http://www.w3.org/2000/svg" width="40.009" height="38" viewBox="0 0 40.009 38">
  <defs>
    <style>
      .cls-1 {
        fill: #d9725c;
      }
    </style>
  </defs>
  <title>money-symbol-payouts-48x48</title>
  <g>
    <path class="cls-1" d="M29,18a1,1,0,0,0,.708-.292L40,7.414V11a1,1,0,0,0,2,0V5a1,1,0,0,0-1-1H35a1,1,0,0,0,0,2h3.586L28.292,16.292A1,1,0,0,0,29,18Z" transform="translate(-3.99 -4)"/>
    <path class="cls-1" d="M43.924,23.382a1.01,1.01,0,0,0,0-.764,1.025,1.025,0,0,0-.218-.326l-4-4a1,1,0,0,0-1.416,1.416L40.586,22H29a1,1,0,0,0,0,2H40.586l-2.294,2.292a1,1,0,0,0,1.416,1.416l4-4A1.048,1.048,0,0,0,43.924,23.382Z" transform="translate(-3.99 -4)"/>
    <path class="cls-1" d="M41,34a1,1,0,0,0-1,1v3.586L29.708,28.292a1,1,0,0,0-1.416,1.416L38.586,40H35a1,1,0,0,0,0,2h6a1,1,0,0,0,1-1V35A1,1,0,0,0,41,34Z" transform="translate(-3.99 -4)"/>
    <path class="cls-1" d="M20,24.062a6.9,6.9,0,0,0-2.2-1.506A6.7,6.7,0,0,0,15.134,22H14V12h1.134a4.708,4.708,0,0,1,1.878.4,4.863,4.863,0,0,1,1.55,1.072,5.025,5.025,0,0,1,1.052,1.6,1,1,0,0,0,1.865-.722c-.006-.016-.012-.031-.019-.046A6.993,6.993,0,0,0,20,12.064a6.861,6.861,0,0,0-2.2-1.508A6.7,6.7,0,0,0,15.134,10H14V9a1,1,0,0,0-2,0v1H10.866a6.7,6.7,0,0,0-2.666.556A6.861,6.861,0,0,0,6,12.064a7.066,7.066,0,0,0,0,9.872,6.85,6.85,0,0,0,2.182,1.508A6.7,6.7,0,0,0,10.866,24H12V34H10.866a4.671,4.671,0,0,1-1.878-.4A4.865,4.865,0,0,1,7.44,32.53a5.048,5.048,0,0,1-1.054-1.6,1,1,0,1,0-1.881.678.911.911,0,0,0,.035.086A7.011,7.011,0,0,0,6,33.938a6.92,6.92,0,0,0,2.182,1.508A6.716,6.716,0,0,0,10.866,36H12v1a1,1,0,0,0,2,0V36h1.134a6.72,6.72,0,0,0,2.666-.554A6.932,6.932,0,0,0,20,33.938,7.074,7.074,0,0,0,20,24.062ZM10.866,22a4.708,4.708,0,0,1-1.878-.4,4.863,4.863,0,0,1-1.55-1.072,5.063,5.063,0,0,1,0-7.078,4.86,4.86,0,0,1,1.55-1.05,4.708,4.708,0,0,1,1.878-.4H12V22Zm8.748,8.948a5.082,5.082,0,0,1-1.052,1.6,4.9,4.9,0,0,1-1.55,1.07,4.671,4.671,0,0,1-1.878.4H14V24h1.134a4.674,4.674,0,0,1,1.878.4,4.849,4.849,0,0,1,1.548,1.07,5.084,5.084,0,0,1,1.054,5.488Z" transform="translate(-3.99 -4)"/>
  </g>
</svg>
