<svg id="Layer_1" data-name="Layer 1" xmlns="http://www.w3.org/2000/svg" width="46" height="44" viewBox="0 0 46 44"><defs><style>.cls-1{fill:#d9725c;}</style></defs><title>multiple-bank-accounts-icon-48x48</title><path class="cls-1" d="M14,23H34a1,1,0,0,0,.832-1.555l-2-3A1,1,0,0,0,32,18H31V9.957h2.5a1,1,0,0,0,.531-1.848l-9.5-5.956a1,1,0,0,0-1.062,0l-9.5,5.956A1,1,0,0,0,14.5,9.957H17V18H16a1,1,0,0,0-.832.445l-2,3A1,1,0,0,0,14,23Zm15-5H25V9.957h4ZM24,4.18l6.022,3.777H17.978ZM19,9.957h4V18H19ZM16.535,20h14.93l.667,1H15.869Z" transform="translate(-1 -2)"/><path class="cls-1" d="M46.832,44.445l-2-3A1,1,0,0,0,44,41H43V32.956h2.5a1,1,0,0,0,.531-1.848l-9.5-5.956a1,1,0,0,0-1.062,0l-9.5,5.956a1,1,0,0,0,.531,1.848H29V41H28a1,1,0,0,0-.832.445l-2,3A1,1,0,0,0,26,46H46a1,1,0,0,0,.832-1.555ZM41,41H37V32.956h4ZM36,27.181l6.022,3.775H29.978Zm-5,5.775h4V41H31ZM27.868,44l.667-1h14.93l.667,1Z" transform="translate(-1 -2)"/><path class="cls-1" d="M20.832,41.445A1,1,0,0,0,20,41H19V32.956h2.5a1,1,0,0,0,.531-1.848l-9.5-5.956a1,1,0,0,0-1.062,0l-9.5,5.956A1,1,0,0,0,2.5,32.956H5V41H4a1,1,0,0,0-.832.445l-2,3A1,1,0,0,0,2,46H22a1,1,0,0,0,.832-1.555ZM17,41H13V32.956h4ZM12,27.181l6.022,3.775H5.978ZM7,32.956h4V41H7ZM3.869,44l.666-1h14.93l.666,1Z" transform="translate(-1 -2)"/></svg>