<svg id="Layer_1" data-name="Layer 1" xmlns="http://www.w3.org/2000/svg" width="48" height="48" viewBox="0 0 48 48">
  <defs>
    <style>
      .cls-1 {
        fill: #d9725c;
      }
    </style>
  </defs>
  <title>Artboard 1</title>
  <path class="cls-1" d="M46.822,17,24.5,4.436a1,1,0,0,0-.981,0L1.185,17a.907.907,0,0,0-.095.061,1,1,0,0,0-.422.816v12.25a1,1,0,0,0,.51.871L23.492,43.55a.993.993,0,0,0,.5.138H24a.99.99,0,0,0,.5-.138L46.817,31a.96.96,0,0,0,.135-.09,1,1,0,0,0,.38-.785V17.872A1,1,0,0,0,46.822,17ZM25,7.015,44.3,17.873l-8.859,4.983L25,16.976Zm-2,.006,0,9.961L12.565,22.859,3.707,17.876Zm0,33.957L2.675,29.546V19.591L23,31.022ZM24,29.29,14.6,24.006l9.4-5.3L33.4,24Zm21.329.252L25,40.978V31.022L35.89,24.9c.025-.013.049-.027.073-.042l9.364-5.267Z"/>
</svg>
