<svg id="Layer_1" data-name="Layer 1" xmlns="http://www.w3.org/2000/svg" width="48" height="46" viewBox="0 0 48 46">
  <defs>
    <style>
      .cls-1 {
        fill: #d9725c;
      }
    </style>
  </defs>
  <title>save-money-hand-money-symbol-icon-48x48</title>
  <g>
    <path class="cls-1" d="M33.293,13.293l-9.018,9.018a3.13,3.13,0,0,0-2.55,0L16.416,17A1,1,0,1,0,15,18.416l5.3,5.3a3,3,0,1,0,5.4,0l9.007-9.007a1,1,0,0,0-1.414-1.414ZM23.707,25.707a1.021,1.021,0,0,1-1.414,0,1,1,0,1,1,1.414,0Z" transform="translate(0 -2)"/>
    <path class="cls-1" d="M47,38H41.967A23.047,23.047,0,0,0,44.2,16.049,23.111,23.111,0,0,0,31.947,3.8a23.14,23.14,0,0,0-8.9-1.788c-.018,0-.033-.01-.051-.01s-.034.01-.053.011A22.82,22.82,0,0,0,6.729,8.736,23.309,23.309,0,0,0,1.8,16.053a23.161,23.161,0,0,0,0,17.9A23.1,23.1,0,0,0,14.053,46.2a23.157,23.157,0,0,0,17.893,0,1,1,0,0,0-.773-1.844A21.063,21.063,0,0,1,24,45.943V41a1,1,0,0,0-2,0v4.943a21.058,21.058,0,0,1-7.169-1.584A21.186,21.186,0,0,1,8.89,40.524l2.089-2.089a1,1,0,0,0-1.414-1.414L7.476,39.11a21.2,21.2,0,0,1-3.834-5.938A20.964,20.964,0,0,1,2.049,26H7a1,1,0,0,0,0-2H2.049a20.959,20.959,0,0,1,1.592-7.169A21.156,21.156,0,0,1,7.476,10.89l2.089,2.089a1,1,0,0,0,1.414-1.414L8.89,9.476a21.21,21.21,0,0,1,5.937-3.834A21.049,21.049,0,0,1,22,4.058V9a1,1,0,0,0,2,0V4.057a21.048,21.048,0,0,1,7.169,1.584,21.151,21.151,0,0,1,5.94,3.835l-2.088,2.089a1,1,0,1,0,1.414,1.414l2.088-2.088a21.143,21.143,0,0,1,3.835,5.936A20.98,20.98,0,0,1,43.951,24H41a1,1,0,0,0,0,2h2.951a20.931,20.931,0,0,1-1.592,7.169A21.289,21.289,0,0,1,40,37.324V31a1,1,0,0,0-2,0v8a1,1,0,0,0,1,1h8a1,1,0,0,0,0-2Z" transform="translate(0 -2)"/>
  </g>
</svg>
