<svg id="Layer_1" data-name="Layer 1" xmlns="http://www.w3.org/2000/svg" width="48.029" height="44.035" viewBox="0 0 48.029 44.035"><defs><style>.cls-1{fill:#d9725c;}</style></defs><title>support-icon-48x48</title><path class="cls-1" d="M23.471,10.018A6.935,6.935,0,0,0,16,16.375a1,1,0,0,0,2,.139,4.937,4.937,0,0,1,5.335-4.5,5.042,5.042,0,0,1,3.441,1.672,4.751,4.751,0,0,1,1.213,3.52c-.113,1.628-.875,2.237-2.027,3.158-1.7,1.357-3.807,3.044-4.085,8.361a1,1,0,0,0,.946,1.051h.053a1,1,0,0,0,1-.947c.231-4.42,1.81-5.683,3.337-6.9,1.277-1.022,2.6-2.078,2.773-4.582a6.732,6.732,0,0,0-1.715-4.99A7.034,7.034,0,0,0,23.471,10.018Z" transform="translate(0.019 -1.983)"/><path class="cls-1" d="M22.62,32.08a1.032,1.032,0,0,0-.33.21A1.05,1.05,0,0,0,22,33a.99.99,0,0,0,1.38.92,1.155,1.155,0,0,0,.33-.21A.99.99,0,0,0,24,33a1.05,1.05,0,0,0-.29-.71A1,1,0,0,0,22.62,32.08Z" transform="translate(0.019 -1.983)"/><path class="cls-1" d="M24,1.983C10.754,1.983-.019,11.008-.019,22.1A17.731,17.731,0,0,0,3.91,33.213c-.036,2.651-1.377,6.756-3.717,11.35a1,1,0,0,0,.891,1.455A.974.974,0,0,0,1.262,46c5.1-.918,11.856-2.825,15.283-4.765,8.976,2.069,17.648.474,23.849-4.405A18.912,18.912,0,0,0,48.01,22.1C48.01,11.008,37.237,1.983,24,1.983ZM39.157,35.26c-5.806,4.567-14.019,6.005-22.536,3.94a1.009,1.009,0,0,0-.757.118c-2.667,1.629-8.3,3.329-13,4.329,1.451-3.114,3.143-7.5,3.043-10.827a1,1,0,0,0-.235-.613A15.729,15.729,0,0,1,1.981,22.1c0-9.992,9.875-18.12,22.015-18.12S46.01,12.111,46.01,22.1A16.924,16.924,0,0,1,39.157,35.26Z" transform="translate(0.019 -1.983)"/></svg>