<svg id="Layer_1" data-name="Layer 1" xmlns="http://www.w3.org/2000/svg" width="48" height="44.001" viewBox="0 0 48 44.001">
  <defs>
    <style>
      .cls-1 {
        fill: #d9725c;
      }
    </style>
  </defs>
  <title>wallet-icon-48x48</title>
  <g>
    <path class="cls-1" d="M45,12H42.57L40.534,6.645a1,1,0,0,0-1.267-.588L34.211,7.839,31.66,2.564a1,1,0,0,0-1.323-.47L9.1,12H3a3,3,0,0,0-3,3V43a3,3,0,0,0,3,3H45a3,3,0,0,0,3-3V15A3,3,0,0,0,45,12Zm-4.57,0h-12L39.012,8.268ZM30.289,4.323l2.024,4.185L22.408,12H13.83ZM45,44H3a1,1,0,0,1-1-1V15a1,1,0,0,1,1-1H45a1,1,0,0,1,1,1v7H35a3,3,0,0,0-3,3v8a3,3,0,0,0,3,3H46v7A1,1,0,0,1,45,44Zm1-10H35a1,1,0,0,1-1-1V25a1,1,0,0,1,1-1H46Z" transform="translate(0 -1.999)"/>
    <path class="cls-1" d="M39,32a3,3,0,1,0-3-3A3,3,0,0,0,39,32Zm0-4a1,1,0,1,1-1,1A1,1,0,0,1,39,28Z" transform="translate(0 -1.999)"/>
  </g>
</svg>
