<svg id="Layer_1" data-name="Layer 1" xmlns="http://www.w3.org/2000/svg" viewBox="0 0 17.42 17.42">
  <defs>
    <style>
      .cls-1 {
        fill: #fff;
        stroke: #fff;
        stroke-miterlimit: 10;
        stroke-width: 0.5px;
      }
    </style>
  </defs>
  <g>
    <path class="cls-1" d="M16.8,5.22a2.17,2.17,0,0,0-1.61-2,42.1,42.1,0,0,0-6.48-.33,42,42,0,0,0-6.48.33,2.17,2.17,0,0,0-1.61,2A25.68,25.68,0,0,0,.4,8.71,25.84,25.84,0,0,0,.62,12.2a2.15,2.15,0,0,0,1.61,2,40.34,40.34,0,0,0,6.48.34,40.42,40.42,0,0,0,6.48-.34,2.15,2.15,0,0,0,1.61-2A25.84,25.84,0,0,0,17,8.71,25.68,25.68,0,0,0,16.8,5.22Zm-.66,6.87A1.5,1.5,0,0,1,15,13.56a40.94,40.94,0,0,1-6.26.3,40.94,40.94,0,0,1-6.26-.3,1.5,1.5,0,0,1-1.17-1.47,23.09,23.09,0,0,1-.21-3.38,23.34,23.34,0,0,1,.21-3.39A1.5,1.5,0,0,1,2.45,3.86a40.94,40.94,0,0,1,6.26-.3,40.94,40.94,0,0,1,6.26.3,1.5,1.5,0,0,1,1.17,1.46,23.34,23.34,0,0,1,.21,3.39A23.09,23.09,0,0,1,16.14,12.09Z"/>
    <polygon class="cls-1" points="7.03 6.19 7.03 8.69 7.03 11.2 11.38 8.69 7.03 6.19"/>
  </g>
</svg>
